<svg width="545" height="539" viewBox="0 0 545 539" fill="none" xmlns="http://www.w3.org/2000/svg">
<g filter="url(#filter0_d_61_927)">
<path d="M4 30C4 13.4314 17.4315 0 34 0H511C527.569 0 541 13.4315 541 30V501C541 517.569 527.569 531 511 531H34C17.4315 531 4 517.569 4 501V30Z" fill="white"/>
<g filter="url(#filter1_d_61_927)">
<line x1="88" y1="182.003" x2="440.047" y2="182.003" stroke="#E9601F" stroke-width="15"/>
<line x1="95.5" y1="74" x2="95.5" y2="189.503" stroke="#E9601F" stroke-width="15"/>
<line x1="330.198" y1="74" x2="330.198" y2="189.503" stroke="#E9601F" stroke-width="15"/>
<line x1="437.377" y1="74" x2="437.377" y2="189.503" stroke="#E9601F" stroke-width="15"/>
<line x1="88" y1="78.0503" x2="205.349" y2="78.0503" stroke="#E9601F" stroke-width="15"/>
<line x1="322.698" y1="81.0503" x2="440.047" y2="81.0503" stroke="#E9601F" stroke-width="15"/>
</g>
<g filter="url(#filter2_d_61_927)">
<line x1="198.114" y1="85.5503" x2="198.114" y2="420.509" stroke="#E9601F" stroke-width="15"/>
<line x1="88" y1="424.56" x2="205.349" y2="424.56" stroke="#E9601F" stroke-width="15"/>
<line x1="88" y1="320.607" x2="205.349" y2="320.607" stroke="#E9601F" stroke-width="15"/>
<line x1="95.5" y1="316.556" x2="95.5" y2="432.06" stroke="#E9601F" stroke-width="15"/>
</g>
<g filter="url(#filter3_d_61_927)">
<rect x="127.116" y="112.501" width="39.1164" height="38.501" fill="#E9601F"/>
</g>
<g filter="url(#filter4_d_61_927)">
<rect x="127.116" y="355.057" width="39.1164" height="38.501" fill="#E9601F"/>
</g>
<g filter="url(#filter5_d_61_927)">
<rect x="361.815" y="112.501" width="39.1164" height="38.501" fill="#E9601F"/>
</g>
<g clip-path="url(#clip0_61_927)">
<g filter="url(#filter6_d_61_927)">
<path d="M329.792 325.619C348.917 325.619 363.792 310.281 363.792 291.456C363.792 272.631 348.208 257.989 329.083 257.989C309.958 257.989 295.083 273.328 295.083 291.456C295.083 310.281 310.667 325.619 329.792 325.619ZM329.083 271.933C329.792 271.933 329.792 271.933 329.083 271.933C340.417 271.933 349.625 280.997 349.625 292.153C349.625 303.308 340.417 311.675 329.083 311.675C317.75 311.675 309.25 302.611 309.25 292.153C309.25 280.997 318.458 271.933 329.083 271.933Z" fill="#E9601F"/>
</g>
<g filter="url(#filter7_d_61_927)">
<path d="M434.625 321.436C421.167 309.583 403.458 303.308 385.042 304.006H379.375C377.958 309.583 375.833 314.464 373 318.647C377.25 317.95 380.792 317.95 385.042 317.95C398.5 317.253 411.958 321.436 422.583 329.106V379.306H436.75V323.528L434.625 321.436Z" fill="#E9601F"/>
</g>
<g filter="url(#filter8_d_61_927)">
<path d="M368.75 259.383C372.292 251.017 382.208 246.833 391.417 250.319C399.917 253.806 404.167 263.567 400.625 272.631C397.792 278.906 391.417 283.089 385.042 283.089C383.625 283.089 381.5 283.089 380.083 282.392C380.792 285.878 380.792 289.364 380.792 292.153V296.336C382.208 296.336 383.625 297.033 385.042 297.033C402.75 297.033 416.917 283.089 416.917 266.356C416.917 248.925 402.75 234.981 385.75 234.981C374.417 234.981 364.5 240.558 358.833 250.319C362.375 252.411 365.917 255.2 368.75 259.383Z" fill="#E9601F"/>
</g>
<g filter="url(#filter9_d_61_927)">
<path d="M288 319.344C285.167 315.161 283.042 310.281 281.625 304.703H275.958C257.542 304.006 239.833 310.281 226.375 321.436L224.25 323.528V379.306H238.417V329.106C249.75 321.436 262.5 317.253 275.958 317.95C280.208 317.95 284.458 318.647 288 319.344Z" fill="#E9601F"/>
</g>
<g filter="url(#filter10_d_61_927)">
<path d="M275.958 296.336C277.375 296.336 278.792 296.336 280.208 295.639V291.456C280.208 287.969 280.208 284.483 280.917 281.694C279.5 282.392 277.375 282.392 275.958 282.392C266.75 282.392 258.958 274.722 258.958 265.658C258.958 256.594 266.75 248.925 275.958 248.925C283.042 248.925 289.417 253.108 292.25 259.383C295.083 255.897 299.333 252.411 302.875 249.622C293.667 234.981 274.542 230.1 259.667 239.164C244.792 248.228 239.833 267.053 249.042 281.694C254.708 290.758 264.625 296.336 275.958 296.336Z" fill="#E9601F"/>
</g>
<g filter="url(#filter11_d_61_927)">
<path d="M387.875 363.269L386.458 361.178C372.292 345.839 352.458 336.775 331.208 337.472C309.958 336.775 289.417 345.839 275.25 361.178L273.833 363.269V416.258C273.833 422.533 278.792 428.111 285.875 428.111H376.542C382.917 428.111 388.583 422.533 388.583 416.258V363.269H387.875ZM373.708 414.167H288V368.15C299.333 356.994 314.917 351.417 331.208 351.417C346.792 350.719 362.375 356.994 373.708 368.15V414.167Z" fill="#E9601F"/>
</g>
</g>
</g>
<defs>
<filter id="filter0_d_61_927" x="0" y="0" width="545" height="539" filterUnits="userSpaceOnUse" color-interpolation-filters="sRGB">
<feFlood flood-opacity="0" result="BackgroundImageFix"/>
<feColorMatrix in="SourceAlpha" type="matrix" values="0 0 0 0 0 0 0 0 0 0 0 0 0 0 0 0 0 0 127 0" result="hardAlpha"/>
<feOffset dy="4"/>
<feGaussianBlur stdDeviation="2"/>
<feComposite in2="hardAlpha" operator="out"/>
<feColorMatrix type="matrix" values="0 0 0 0 0 0 0 0 0 0 0 0 0 0 0 0 0 0 0.25 0"/>
<feBlend mode="normal" in2="BackgroundImageFix" result="effect1_dropShadow_61_927"/>
<feBlend mode="normal" in="SourceGraphic" in2="effect1_dropShadow_61_927" result="shape"/>
</filter>
<filter id="filter1_d_61_927" x="84" y="70.5503" width="364.877" height="126.953" filterUnits="userSpaceOnUse" color-interpolation-filters="sRGB">
<feFlood flood-opacity="0" result="BackgroundImageFix"/>
<feColorMatrix in="SourceAlpha" type="matrix" values="0 0 0 0 0 0 0 0 0 0 0 0 0 0 0 0 0 0 127 0" result="hardAlpha"/>
<feOffset dy="4"/>
<feGaussianBlur stdDeviation="2"/>
<feComposite in2="hardAlpha" operator="out"/>
<feColorMatrix type="matrix" values="0 0 0 0 0 0 0 0 0 0 0 0 0 0 0 0 0 0 0.25 0"/>
<feBlend mode="normal" in2="BackgroundImageFix" result="effect1_dropShadow_61_927"/>
<feBlend mode="normal" in="SourceGraphic" in2="effect1_dropShadow_61_927" result="shape"/>
</filter>
<filter id="filter2_d_61_927" x="84" y="85.5503" width="125.614" height="354.509" filterUnits="userSpaceOnUse" color-interpolation-filters="sRGB">
<feFlood flood-opacity="0" result="BackgroundImageFix"/>
<feColorMatrix in="SourceAlpha" type="matrix" values="0 0 0 0 0 0 0 0 0 0 0 0 0 0 0 0 0 0 127 0" result="hardAlpha"/>
<feOffset dy="4"/>
<feGaussianBlur stdDeviation="2"/>
<feComposite in2="hardAlpha" operator="out"/>
<feColorMatrix type="matrix" values="0 0 0 0 0 0 0 0 0 0 0 0 0 0 0 0 0 0 0.25 0"/>
<feBlend mode="normal" in2="BackgroundImageFix" result="effect1_dropShadow_61_927"/>
<feBlend mode="normal" in="SourceGraphic" in2="effect1_dropShadow_61_927" result="shape"/>
</filter>
<filter id="filter3_d_61_927" x="123.116" y="112.501" width="47.1164" height="46.501" filterUnits="userSpaceOnUse" color-interpolation-filters="sRGB">
<feFlood flood-opacity="0" result="BackgroundImageFix"/>
<feColorMatrix in="SourceAlpha" type="matrix" values="0 0 0 0 0 0 0 0 0 0 0 0 0 0 0 0 0 0 127 0" result="hardAlpha"/>
<feOffset dy="4"/>
<feGaussianBlur stdDeviation="2"/>
<feComposite in2="hardAlpha" operator="out"/>
<feColorMatrix type="matrix" values="0 0 0 0 0 0 0 0 0 0 0 0 0 0 0 0 0 0 0.25 0"/>
<feBlend mode="normal" in2="BackgroundImageFix" result="effect1_dropShadow_61_927"/>
<feBlend mode="normal" in="SourceGraphic" in2="effect1_dropShadow_61_927" result="shape"/>
</filter>
<filter id="filter4_d_61_927" x="123.116" y="355.057" width="47.1164" height="46.501" filterUnits="userSpaceOnUse" color-interpolation-filters="sRGB">
<feFlood flood-opacity="0" result="BackgroundImageFix"/>
<feColorMatrix in="SourceAlpha" type="matrix" values="0 0 0 0 0 0 0 0 0 0 0 0 0 0 0 0 0 0 127 0" result="hardAlpha"/>
<feOffset dy="4"/>
<feGaussianBlur stdDeviation="2"/>
<feComposite in2="hardAlpha" operator="out"/>
<feColorMatrix type="matrix" values="0 0 0 0 0 0 0 0 0 0 0 0 0 0 0 0 0 0 0.25 0"/>
<feBlend mode="normal" in2="BackgroundImageFix" result="effect1_dropShadow_61_927"/>
<feBlend mode="normal" in="SourceGraphic" in2="effect1_dropShadow_61_927" result="shape"/>
</filter>
<filter id="filter5_d_61_927" x="357.815" y="112.501" width="47.1164" height="46.501" filterUnits="userSpaceOnUse" color-interpolation-filters="sRGB">
<feFlood flood-opacity="0" result="BackgroundImageFix"/>
<feColorMatrix in="SourceAlpha" type="matrix" values="0 0 0 0 0 0 0 0 0 0 0 0 0 0 0 0 0 0 127 0" result="hardAlpha"/>
<feOffset dy="4"/>
<feGaussianBlur stdDeviation="2"/>
<feComposite in2="hardAlpha" operator="out"/>
<feColorMatrix type="matrix" values="0 0 0 0 0 0 0 0 0 0 0 0 0 0 0 0 0 0 0.25 0"/>
<feBlend mode="normal" in2="BackgroundImageFix" result="effect1_dropShadow_61_927"/>
<feBlend mode="normal" in="SourceGraphic" in2="effect1_dropShadow_61_927" result="shape"/>
</filter>
<filter id="filter6_d_61_927" x="291.083" y="257.989" width="76.7083" height="75.6306" filterUnits="userSpaceOnUse" color-interpolation-filters="sRGB">
<feFlood flood-opacity="0" result="BackgroundImageFix"/>
<feColorMatrix in="SourceAlpha" type="matrix" values="0 0 0 0 0 0 0 0 0 0 0 0 0 0 0 0 0 0 127 0" result="hardAlpha"/>
<feOffset dy="4"/>
<feGaussianBlur stdDeviation="2"/>
<feComposite in2="hardAlpha" operator="out"/>
<feColorMatrix type="matrix" values="0 0 0 0 0 0 0 0 0 0 0 0 0 0 0 0 0 0 0.25 0"/>
<feBlend mode="normal" in2="BackgroundImageFix" result="effect1_dropShadow_61_927"/>
<feBlend mode="normal" in="SourceGraphic" in2="effect1_dropShadow_61_927" result="shape"/>
</filter>
<filter id="filter7_d_61_927" x="369" y="303.953" width="71.75" height="83.3525" filterUnits="userSpaceOnUse" color-interpolation-filters="sRGB">
<feFlood flood-opacity="0" result="BackgroundImageFix"/>
<feColorMatrix in="SourceAlpha" type="matrix" values="0 0 0 0 0 0 0 0 0 0 0 0 0 0 0 0 0 0 127 0" result="hardAlpha"/>
<feOffset dy="4"/>
<feGaussianBlur stdDeviation="2"/>
<feComposite in2="hardAlpha" operator="out"/>
<feColorMatrix type="matrix" values="0 0 0 0 0 0 0 0 0 0 0 0 0 0 0 0 0 0 0.25 0"/>
<feBlend mode="normal" in2="BackgroundImageFix" result="effect1_dropShadow_61_927"/>
<feBlend mode="normal" in="SourceGraphic" in2="effect1_dropShadow_61_927" result="shape"/>
</filter>
<filter id="filter8_d_61_927" x="354.833" y="234.981" width="66.0833" height="70.0528" filterUnits="userSpaceOnUse" color-interpolation-filters="sRGB">
<feFlood flood-opacity="0" result="BackgroundImageFix"/>
<feColorMatrix in="SourceAlpha" type="matrix" values="0 0 0 0 0 0 0 0 0 0 0 0 0 0 0 0 0 0 127 0" result="hardAlpha"/>
<feOffset dy="4"/>
<feGaussianBlur stdDeviation="2"/>
<feComposite in2="hardAlpha" operator="out"/>
<feColorMatrix type="matrix" values="0 0 0 0 0 0 0 0 0 0 0 0 0 0 0 0 0 0 0.25 0"/>
<feBlend mode="normal" in2="BackgroundImageFix" result="effect1_dropShadow_61_927"/>
<feBlend mode="normal" in="SourceGraphic" in2="effect1_dropShadow_61_927" result="shape"/>
</filter>
<filter id="filter9_d_61_927" x="220.25" y="304.65" width="71.75" height="82.6553" filterUnits="userSpaceOnUse" color-interpolation-filters="sRGB">
<feFlood flood-opacity="0" result="BackgroundImageFix"/>
<feColorMatrix in="SourceAlpha" type="matrix" values="0 0 0 0 0 0 0 0 0 0 0 0 0 0 0 0 0 0 127 0" result="hardAlpha"/>
<feOffset dy="4"/>
<feGaussianBlur stdDeviation="2"/>
<feComposite in2="hardAlpha" operator="out"/>
<feColorMatrix type="matrix" values="0 0 0 0 0 0 0 0 0 0 0 0 0 0 0 0 0 0 0.25 0"/>
<feBlend mode="normal" in2="BackgroundImageFix" result="effect1_dropShadow_61_927"/>
<feBlend mode="normal" in="SourceGraphic" in2="effect1_dropShadow_61_927" result="shape"/>
</filter>
<filter id="filter10_d_61_927" x="240.395" y="234.59" width="66.4801" height="69.7461" filterUnits="userSpaceOnUse" color-interpolation-filters="sRGB">
<feFlood flood-opacity="0" result="BackgroundImageFix"/>
<feColorMatrix in="SourceAlpha" type="matrix" values="0 0 0 0 0 0 0 0 0 0 0 0 0 0 0 0 0 0 127 0" result="hardAlpha"/>
<feOffset dy="4"/>
<feGaussianBlur stdDeviation="2"/>
<feComposite in2="hardAlpha" operator="out"/>
<feColorMatrix type="matrix" values="0 0 0 0 0 0 0 0 0 0 0 0 0 0 0 0 0 0 0.25 0"/>
<feBlend mode="normal" in2="BackgroundImageFix" result="effect1_dropShadow_61_927"/>
<feBlend mode="normal" in="SourceGraphic" in2="effect1_dropShadow_61_927" result="shape"/>
</filter>
<filter id="filter11_d_61_927" x="269.833" y="337.435" width="122.75" height="98.6764" filterUnits="userSpaceOnUse" color-interpolation-filters="sRGB">
<feFlood flood-opacity="0" result="BackgroundImageFix"/>
<feColorMatrix in="SourceAlpha" type="matrix" values="0 0 0 0 0 0 0 0 0 0 0 0 0 0 0 0 0 0 127 0" result="hardAlpha"/>
<feOffset dy="4"/>
<feGaussianBlur stdDeviation="2"/>
<feComposite in2="hardAlpha" operator="out"/>
<feColorMatrix type="matrix" values="0 0 0 0 0 0 0 0 0 0 0 0 0 0 0 0 0 0 0.25 0"/>
<feBlend mode="normal" in2="BackgroundImageFix" result="effect1_dropShadow_61_927"/>
<feBlend mode="normal" in="SourceGraphic" in2="effect1_dropShadow_61_927" result="shape"/>
</filter>
<clipPath id="clip0_61_927">
<rect width="255" height="251" fill="white" transform="translate(203 205)"/>
</clipPath>
</defs>
</svg>
