<svg width="238" height="69" viewBox="0 0 238 69" fill="none" xmlns="http://www.w3.org/2000/svg">
<path d="M20.8 53V22.67H28.36V53H20.8ZM51.13 22.67V53H32.185V51.29H43.57V24.785H32.185V22.67H51.13ZM54.8576 53V51.335H80.2826V53H54.8576ZM62.1026 31.22V50.21H54.8576V31.22H62.1026ZM73.0376 31.22H80.2826V50.21H73.0376V31.22ZM83.9494 53V21.05H91.2394V53H83.9494ZM98.3944 40.535V31.22H109.329V33.2H105.729V40.535H98.3944ZM112.884 42.155V53H105.729V43.73H94.7944V42.155H112.884ZM124.28 33.2V51.335H131.48V53H116.945V31.22H131.48V33.2H124.28ZM142.37 51.335H146.06V53H135.08V31.22H142.37V51.335ZM174.765 31.22V53H167.52V33.245H156.585V53H149.34V31.22H174.765Z" fill="black"/>
<path d="M196.479 21.05H203.679V53H189.189V51.38H196.479V21.05ZM192.834 33.245H185.634V53H178.344V31.22H192.834V33.245ZM214.28 33.2V51.335H221.48V53H206.945V31.22H221.48V33.2H214.28ZM232.37 51.335H236.06V53H225.08V31.22H232.37V51.335Z" fill="#E9601F"/>
<path d="M18.04 0H19.68V1.64H18.04V0ZM22.96 0H24.6V1.64H22.96V0ZM24.6 0H26.24V1.64H24.6V0ZM26.24 0H27.88V1.64H26.24V0ZM14.76 1.64H16.4V3.28H14.76V1.64ZM21.32 1.64H22.96V3.28H21.32V1.64ZM22.96 1.64H24.6V3.28H22.96V1.64ZM26.24 1.64H27.88V3.28H26.24V1.64ZM3.28 3.28H4.92V4.92H3.28V3.28ZM4.92 3.28H6.56V4.92H4.92V3.28ZM6.56 3.28H8.2V4.92H6.56V3.28ZM14.76 3.28H16.4V4.92H14.76V3.28ZM16.4 3.28H18.04V4.92H16.4V3.28ZM19.68 3.28H21.32V4.92H19.68V3.28ZM22.96 3.28H24.6V4.92H22.96V3.28ZM24.6 3.28H26.24V4.92H24.6V3.28ZM32.8 3.28H34.44V4.92H32.8V3.28ZM34.44 3.28H36.08V4.92H34.44V3.28ZM36.08 3.28H37.72V4.92H36.08V3.28ZM3.28 4.92H4.92V6.56H3.28V4.92ZM4.92 4.92H6.56V6.56H4.92V4.92ZM6.56 4.92H8.2V6.56H6.56V4.92ZM13.12 4.92H14.76V6.56H13.12V4.92ZM14.76 4.92H16.4V6.56H14.76V4.92ZM19.68 4.92H21.32V6.56H19.68V4.92ZM22.96 4.92H24.6V6.56H22.96V4.92ZM24.6 4.92H26.24V6.56H24.6V4.92ZM32.8 4.92H34.44V6.56H32.8V4.92ZM34.44 4.92H36.08V6.56H34.44V4.92ZM36.08 4.92H37.72V6.56H36.08V4.92ZM3.28 6.56H4.92V8.2H3.28V6.56ZM4.92 6.56H6.56V8.2H4.92V6.56ZM6.56 6.56H8.2V8.2H6.56V6.56ZM16.4 6.56H18.04V8.2H16.4V6.56ZM18.04 6.56H19.68V8.2H18.04V6.56ZM19.68 6.56H21.32V8.2H19.68V6.56ZM21.32 6.56H22.96V8.2H21.32V6.56ZM22.96 6.56H24.6V8.2H22.96V6.56ZM32.8 6.56H34.44V8.2H32.8V6.56ZM34.44 6.56H36.08V8.2H34.44V6.56ZM36.08 6.56H37.72V8.2H36.08V6.56ZM13.12 8.2H14.76V9.84H13.12V8.2ZM18.04 8.2H19.68V9.84H18.04V8.2ZM26.24 8.2H27.88V9.84H26.24V8.2ZM13.12 9.84H14.76V11.48H13.12V9.84ZM16.4 9.84H18.04V11.48H16.4V9.84ZM19.68 9.84H21.32V11.48H19.68V9.84ZM22.96 9.84H24.6V11.48H22.96V9.84ZM26.24 9.84H27.88V11.48H26.24V9.84ZM13.12 11.48H14.76V13.12H13.12V11.48ZM14.76 11.48H16.4V13.12H14.76V11.48ZM16.4 11.48H18.04V13.12H16.4V11.48ZM22.96 11.48H24.6V13.12H22.96V11.48ZM24.6 11.48H26.24V13.12H24.6V11.48ZM26.24 11.48H27.88V13.12H26.24V11.48ZM1.64 13.12H3.28V14.76H1.64V13.12ZM3.28 13.12H4.92V14.76H3.28V13.12ZM9.84 13.12H11.48V14.76H9.84V13.12ZM21.32 13.12H22.96V14.76H21.32V13.12ZM22.96 13.12H24.6V14.76H22.96V13.12ZM26.24 13.12H27.88V14.76H26.24V13.12ZM29.52 13.12H31.16V14.76H29.52V13.12ZM31.16 13.12H32.8V14.76H31.16V13.12ZM34.44 13.12H36.08V14.76H34.44V13.12ZM1.64 14.76H3.28V16.4H1.64V14.76ZM3.28 14.76H4.92V16.4H3.28V14.76ZM6.56 14.76H8.2V16.4H6.56V14.76ZM11.48 14.76H13.12V16.4H11.48V14.76ZM16.4 14.76H18.04V16.4H16.4V14.76ZM18.04 14.76H19.68V16.4H18.04V14.76ZM19.68 14.76H21.32V16.4H19.68V14.76ZM21.32 14.76H22.96V16.4H21.32V14.76ZM22.96 14.76H24.6V16.4H22.96V14.76ZM24.6 14.76H26.24V16.4H24.6V14.76ZM26.24 14.76H27.88V16.4H26.24V14.76ZM29.52 14.76H31.16V16.4H29.52V14.76ZM31.16 14.76H32.8V16.4H31.16V14.76ZM34.44 14.76H36.08V16.4H34.44V14.76ZM37.72 14.76H39.36V16.4H37.72V14.76ZM39.36 14.76H41V16.4H39.36V14.76ZM9.84 16.4H11.48V18.04H9.84V16.4ZM18.04 16.4H19.68V18.04H18.04V16.4ZM24.6 16.4H26.24V18.04H24.6V16.4ZM27.88 16.4H29.52V18.04H27.88V16.4ZM31.16 16.4H32.8V18.04H31.16V16.4ZM34.44 16.4H36.08V18.04H34.44V16.4ZM36.08 16.4H37.72V18.04H36.08V16.4ZM39.36 16.4H41V18.04H39.36V16.4ZM0 18.04H1.64V19.68H0V18.04ZM1.64 18.04H3.28V19.68H1.64V18.04ZM6.56 18.04H8.2V19.68H6.56V18.04ZM11.48 18.04H13.12V19.68H11.48V18.04ZM14.76 18.04H16.4V19.68H14.76V18.04ZM16.4 18.04H18.04V19.68H16.4V18.04ZM21.32 18.04H22.96V19.68H21.32V18.04ZM24.6 18.04H26.24V19.68H24.6V18.04ZM27.88 18.04H29.52V19.68H27.88V18.04ZM31.16 18.04H32.8V19.68H31.16V18.04ZM34.44 18.04H36.08V19.68H34.44V18.04ZM0 19.68H1.64V21.32H0V19.68ZM1.64 19.68H3.28V21.32H1.64V19.68ZM4.92 19.68H6.56V21.32H4.92V19.68ZM9.84 19.68H11.48V21.32H9.84V19.68ZM11.48 19.68H13.12V21.32H11.48V19.68ZM13.12 19.68H14.76V21.32H13.12V19.68ZM14.76 19.68H16.4V21.32H14.76V19.68ZM16.4 19.68H18.04V21.32H16.4V19.68ZM21.32 19.68H22.96V21.32H21.32V19.68ZM24.6 19.68H26.24V21.32H24.6V19.68ZM26.24 19.68H27.88V21.32H26.24V19.68ZM29.52 19.68H31.16V21.32H29.52V19.68ZM31.16 19.68H32.8V21.32H31.16V19.68ZM39.36 19.68H41V21.32H39.36V19.68ZM3.28 21.32H4.92V22.96H3.28V21.32ZM4.92 21.32H6.56V22.96H4.92V21.32ZM6.56 21.32H8.2V22.96H6.56V21.32ZM16.4 21.32H18.04V22.96H16.4V21.32ZM18.04 21.32H19.68V22.96H18.04V21.32ZM0 22.96H1.64V24.6H0V22.96ZM1.64 22.96H3.28V24.6H1.64V22.96ZM4.92 22.96H6.56V24.6H4.92V22.96ZM8.2 22.96H9.84V24.6H8.2V22.96ZM9.84 22.96H11.48V24.6H9.84V22.96ZM13.12 22.96H14.76V24.6H13.12V22.96ZM14.76 22.96H16.4V24.6H14.76V22.96ZM16.4 22.96H18.04V24.6H16.4V22.96ZM3.28 24.6H4.92V26.24H3.28V24.6ZM4.92 24.6H6.56V26.24H4.92V24.6ZM6.56 24.6H8.2V26.24H6.56V24.6ZM11.48 24.6H13.12V26.24H11.48V24.6ZM16.4 24.6H18.04V26.24H16.4V24.6ZM0 26.24H1.64V27.88H0V26.24ZM1.64 26.24H3.28V27.88H1.64V26.24ZM3.28 26.24H4.92V27.88H3.28V26.24ZM6.56 26.24H8.2V27.88H6.56V26.24ZM9.84 26.24H11.48V27.88H9.84V26.24ZM13.12 26.24H14.76V27.88H13.12V26.24ZM18.04 26.24H19.68V27.88H18.04V26.24ZM13.12 27.88H14.76V29.52H13.12V27.88ZM14.76 27.88H16.4V29.52H14.76V27.88ZM16.4 27.88H18.04V29.52H16.4V27.88ZM18.04 27.88H19.68V29.52H18.04V27.88ZM16.4 29.52H18.04V31.16H16.4V29.52ZM18.04 29.52H19.68V31.16H18.04V29.52ZM14.76 31.16H16.4V32.8H14.76V31.16ZM16.4 31.16H18.04V32.8H16.4V31.16ZM3.28 32.8H4.92V34.44H3.28V32.8ZM4.92 32.8H6.56V34.44H4.92V32.8ZM6.56 32.8H8.2V34.44H6.56V32.8ZM14.76 32.8H16.4V34.44H14.76V32.8ZM16.4 32.8H18.04V34.44H16.4V32.8ZM3.28 34.44H4.92V36.08H3.28V34.44ZM4.92 34.44H6.56V36.08H4.92V34.44ZM6.56 34.44H8.2V36.08H6.56V34.44ZM14.76 34.44H16.4V36.08H14.76V34.44ZM16.4 34.44H18.04V36.08H16.4V34.44ZM18.04 34.44H19.68V36.08H18.04V34.44ZM3.28 36.08H4.92V37.72H3.28V36.08ZM4.92 36.08H6.56V37.72H4.92V36.08ZM6.56 36.08H8.2V37.72H6.56V36.08ZM16.4 37.72H18.04V39.36H16.4V37.72ZM16.4 39.36H18.04V41H16.4V39.36Z" fill="black"/>
<rect x="0.85" y="0.85" width="9.8" height="9.8" stroke="#E9601F" stroke-width="1.7"/>
<rect x="30.85" y="0.85" width="9.8" height="9.8" stroke="#E9601F" stroke-width="1.7"/>
<rect x="0.85" y="29.85" width="9.8" height="9.8" stroke="#E9601F" stroke-width="1.7"/>
<rect x="58.5" y="22.5" width="6" height="6" fill="#D9D9D9" stroke="black"/>
<rect x="60" y="24" width="3" height="3" fill="#1A1A1A"/>
<rect x="69.5" y="22.5" width="6" height="6" fill="#D9D9D9" stroke="black"/>
<rect x="71" y="24" width="3" height="3" fill="#1A1A1A"/>
</svg>
