<svg width="470" height="313" viewBox="0 0 470 313" fill="none" xmlns="http://www.w3.org/2000/svg">
<path d="M64.9101 230.64C64.9101 230.64 89.9101 287.64 153.12 306.28C216.33 324.92 283.83 300.08 338.99 281.41C394.15 262.74 423.16 215 410.87 166.05C398.58 117.1 352.11 120.62 308.77 77.1501C265.43 33.6801 260.49 15.5401 200.43 2.70013C140.37 -10.1399 74.6301 40.4101 58.1901 112C41.7501 183.59 64.9101 230.64 64.9101 230.64Z" fill="#FF4747"/>
<path opacity="0.8" d="M64.9101 230.64C64.9101 230.64 89.9101 287.64 153.12 306.28C216.33 324.92 283.83 300.08 338.99 281.41C394.15 262.74 423.16 215 410.87 166.05C398.58 117.1 352.11 120.62 308.77 77.1501C265.43 33.6801 260.49 15.5401 200.43 2.70013C140.37 -10.1399 74.6301 40.4101 58.1901 112C41.7501 183.59 64.9101 230.64 64.9101 230.64Z" fill="white"/>
<path d="M386 153.6C386 153.6 408.92 155.87 420.53 170.08C420.53 170.08 432.81 153.62 454.85 153.96C460.236 147.462 463.666 139.568 464.74 131.197C465.813 122.825 464.487 114.321 460.915 106.674C457.343 99.0277 451.672 92.5529 444.563 88.004C437.453 83.4551 429.198 81.0192 420.759 80.98C412.319 80.9408 404.041 83.2998 396.89 87.7824C389.739 92.2651 384.008 98.6869 380.365 106.3C376.722 113.913 375.317 122.405 376.313 130.786C377.308 139.167 380.665 147.093 385.99 153.64L386 153.6Z" fill="#FF4747"/>
<path opacity="0.5" d="M386 153.6C386 153.6 408.92 155.87 420.53 170.08C420.53 170.08 432.81 153.62 454.85 153.96C460.236 147.462 463.666 139.568 464.74 131.197C465.813 122.825 464.487 114.321 460.915 106.674C457.343 99.0277 451.672 92.5529 444.563 88.004C437.453 83.4551 429.198 81.0192 420.759 80.98C412.319 80.9408 404.041 83.2998 396.89 87.7824C389.739 92.2651 384.008 98.6869 380.365 106.3C376.722 113.913 375.317 122.405 376.313 130.786C377.308 139.167 380.665 147.093 385.99 153.64L386 153.6Z" fill="white"/>
<path d="M419.76 84.1201L418.99 232.66H422.86L419.76 84.1201Z" fill="#B8B8B8"/>
<path d="M420.93 165.751C420.93 165.751 428.66 151.821 442.59 147.561C442.59 147.561 427.89 151.051 420.59 163.041L420.93 165.751Z" fill="#B8B8B8"/>
<path d="M420.93 126.291C420.93 126.291 428.66 112.361 442.59 108.101C442.59 108.101 427.89 111.581 420.59 123.581L420.93 126.291Z" fill="#B8B8B8"/>
<path d="M420.93 146.001C420.93 146.001 428.66 132.071 442.59 127.811C442.59 127.811 427.89 131.301 420.59 143.291L420.93 146.001Z" fill="#B8B8B8"/>
<path d="M419.78 136.34C419.78 136.34 412.31 122.42 398.87 118.16C398.87 118.16 413.06 121.64 420.15 133.64L419.78 136.34Z" fill="#B8B8B8"/>
<path d="M419.78 155.69C419.78 155.69 412.31 141.76 398.87 137.51C398.87 137.51 413.06 140.99 420.15 152.98L419.78 155.69Z" fill="#B8B8B8"/>
<path d="M10.87 153.6C10.87 153.6 33.79 155.87 45.4 170.08C45.4 170.08 57.68 153.62 79.72 153.96C85.1062 147.462 88.5358 139.568 89.6094 131.197C90.6831 122.825 89.3567 114.321 85.7846 106.674C82.2125 99.0277 76.5417 92.5529 69.4326 88.004C62.3234 83.4551 54.0683 81.0192 45.6284 80.98C37.1885 80.9408 28.9111 83.2998 21.76 87.7824C14.6088 92.2651 8.87812 98.6869 5.23513 106.3C1.59213 113.913 0.186729 122.405 1.18255 130.786C2.17836 139.167 5.53443 147.093 10.86 153.64L10.87 153.6Z" fill="#FF4747"/>
<path opacity="0.5" d="M10.87 153.6C10.87 153.6 33.79 155.87 45.4 170.08C45.4 170.08 57.68 153.62 79.72 153.96C85.1062 147.462 88.5358 139.568 89.6094 131.197C90.6831 122.825 89.3567 114.321 85.7846 106.674C82.2125 99.0277 76.5417 92.5529 69.4326 88.004C62.3234 83.4551 54.0683 81.0192 45.6284 80.98C37.1885 80.9408 28.9111 83.2998 21.76 87.7824C14.6088 92.2651 8.87812 98.6869 5.23513 106.3C1.59213 113.913 0.186729 122.405 1.18255 130.786C2.17836 139.167 5.53443 147.093 10.86 153.64L10.87 153.6Z" fill="white"/>
<path d="M44.6499 84.1201L43.8699 232.66H47.7399L44.6499 84.1201Z" fill="#B8B8B8"/>
<path d="M45.81 165.751C45.81 165.751 53.54 151.821 67.47 147.561C67.47 147.561 52.77 151.051 45.47 163.041L45.81 165.751Z" fill="#B8B8B8"/>
<path d="M45.81 126.291C45.81 126.291 53.54 112.361 67.47 108.101C67.47 108.101 52.77 111.581 45.47 123.581L45.81 126.291Z" fill="#B8B8B8"/>
<path d="M45.81 146.001C45.81 146.001 53.54 132.071 67.47 127.811C67.47 127.811 52.77 131.301 45.47 143.291L45.81 146.001Z" fill="#B8B8B8"/>
<path d="M44.66 136.34C44.66 136.34 37.19 122.42 23.75 118.16C23.75 118.16 37.94 121.64 45.03 133.64L44.66 136.34Z" fill="#B8B8B8"/>
<path d="M44.66 155.69C44.66 155.69 37.19 141.76 23.75 137.51C23.75 137.51 37.94 140.99 45.03 152.98L44.66 155.69Z" fill="#B8B8B8"/>
<path d="M292.87 168C292.87 168 311.63 169.85 321.13 181.48C321.13 181.48 331.18 168.01 349.22 168.28C353.626 162.961 356.431 156.5 357.308 149.648C358.184 142.797 357.097 135.838 354.172 129.581C351.247 123.324 346.605 118.026 340.786 114.305C334.967 110.583 328.211 108.592 321.304 108.561C314.397 108.53 307.624 110.462 301.772 114.132C295.921 117.801 291.232 123.058 288.251 129.288C285.271 135.519 284.122 142.469 284.938 149.327C285.754 156.186 288.501 162.672 292.86 168.03L292.87 168Z" fill="#FF4747"/>
<path opacity="0.5" d="M292.87 168C292.87 168 311.63 169.85 321.13 181.48C321.13 181.48 331.18 168.01 349.22 168.28C353.626 162.961 356.431 156.5 357.308 149.648C358.184 142.797 357.097 135.838 354.172 129.581C351.247 123.324 346.605 118.026 340.786 114.305C334.967 110.583 328.211 108.592 321.304 108.561C314.397 108.53 307.624 110.462 301.772 114.132C295.921 117.801 291.232 123.058 288.251 129.288C285.271 135.519 284.122 142.469 284.938 149.327C285.754 156.186 288.501 162.672 292.86 168.03L292.87 168Z" fill="white"/>
<path d="M320.51 111.08L319.88 232.66H323.05L320.51 111.08Z" fill="#B8B8B8"/>
<path d="M321.46 177.9C321.46 177.9 327.8 166.5 339.19 163.01C339.19 163.01 327.19 165.86 321.19 175.68L321.46 177.9Z" fill="#B8B8B8"/>
<path d="M321.46 145.601C321.46 145.601 327.8 134.201 339.19 130.721C339.19 130.721 327.19 133.571 321.19 143.381L321.46 145.601Z" fill="#B8B8B8"/>
<path d="M321.46 161.75C321.46 161.75 327.8 150.35 339.19 146.86C339.19 146.86 327.19 149.71 321.19 159.53L321.46 161.75Z" fill="#B8B8B8"/>
<path d="M320.52 153.83C320.52 153.83 314.41 142.43 303.41 138.95C303.41 138.95 315.02 141.8 320.83 151.61L320.52 153.83Z" fill="#B8B8B8"/>
<path d="M320.52 169.66C320.52 169.66 314.41 158.26 303.41 154.78C303.41 154.78 315.02 157.63 320.83 167.45L320.52 169.66Z" fill="#B8B8B8"/>
<path d="M111.36 168C111.36 168 130.12 169.85 139.62 181.48C139.62 181.48 149.62 168.01 167.71 168.28C172.116 162.961 174.921 156.5 175.798 149.648C176.674 142.797 175.587 135.838 172.662 129.581C169.737 123.324 165.095 118.026 159.276 114.305C153.457 110.583 146.701 108.592 139.794 108.561C132.887 108.53 126.114 110.462 120.262 114.132C114.411 117.801 109.722 123.058 106.741 129.288C103.761 135.519 102.612 142.469 103.428 149.327C104.244 156.186 106.991 162.672 111.35 168.03L111.36 168Z" fill="#FF4747"/>
<path opacity="0.5" d="M111.36 168C111.36 168 130.12 169.85 139.62 181.48C139.62 181.48 149.62 168.01 167.71 168.28C172.116 162.961 174.921 156.5 175.798 149.648C176.674 142.797 175.587 135.838 172.662 129.581C169.737 123.324 165.095 118.026 159.276 114.305C153.457 110.583 146.701 108.592 139.794 108.561C132.887 108.53 126.114 110.462 120.262 114.132C114.411 117.801 109.722 123.058 106.741 129.288C103.761 135.519 102.612 142.469 103.428 149.327C104.244 156.186 106.991 162.672 111.35 168.03L111.36 168Z" fill="white"/>
<path d="M139 111.08L138.37 232.66H141.54L139 111.08Z" fill="#B8B8B8"/>
<path d="M140 177.9C140 177.9 146.34 166.5 157.73 163.01C157.73 163.01 145.73 165.86 139.73 175.68L140 177.9Z" fill="#B8B8B8"/>
<path d="M140 145.601C140 145.601 146.34 134.201 157.73 130.721C157.73 130.721 145.73 133.571 139.73 143.381L140 145.601Z" fill="#B8B8B8"/>
<path d="M140 161.75C140 161.75 146.34 150.35 157.73 146.86C157.73 146.86 145.73 149.71 139.73 159.53L140 161.75Z" fill="#B8B8B8"/>
<path d="M139 153.83C139 153.83 132.9 142.43 121.9 139C121.9 139 133.51 141.85 139.32 151.66L139 153.83Z" fill="#B8B8B8"/>
<path d="M139 169.66C139 169.66 132.89 158.26 121.89 154.78C121.89 154.78 133.5 157.63 139.31 167.45L139 169.66Z" fill="#B8B8B8"/>
<path d="M17.77 233.19H449.31" stroke="#263238" stroke-width="1.04742" stroke-miterlimit="10"/>
<path opacity="0.3" d="M135.59 281.45C135.59 284.45 117.16 286.84 94.41 286.84C71.66 286.84 53.23 284.43 53.23 281.45C53.23 278.47 71.67 276.06 94.41 276.06C117.15 276.06 135.59 278.48 135.59 281.45Z" fill="black"/>
<path opacity="0.3" d="M221.8 281.45C221.8 284.45 203.36 286.84 180.62 286.84C157.88 286.84 139.44 284.43 139.44 281.45C139.44 278.47 157.88 276.06 180.62 276.06C203.36 276.06 221.8 278.48 221.8 281.45Z" fill="black"/>
<path opacity="0.3" d="M336 281.45C336 284.45 317.57 286.84 294.83 286.84C272.09 286.84 253.65 284.43 253.65 281.45C253.65 278.47 272.08 276.06 294.83 276.06C317.58 276.06 336 278.48 336 281.45Z" fill="black"/>
<path opacity="0.3" d="M431.4 281.45C431.4 284.45 412.96 286.84 390.22 286.84C367.48 286.84 349 284.43 349 281.45C349 278.47 367.44 276.06 390.18 276.06C412.92 276.06 431.4 278.48 431.4 281.45Z" fill="black"/>
<path d="M299.28 123.77C299.28 123.77 297.59 130.77 297.59 131.95C297.589 132.679 297.508 133.407 297.35 134.12C297.35 134.12 293.74 138.45 294.22 139.65C294.803 140.583 295.639 141.331 296.63 141.81C296.63 141.81 298.55 148.81 300.48 149.27C302.462 149.64 304.466 149.88 306.48 149.99L307.2 155.76L316.82 154.32L314.42 145.66L315.42 138.2C315.42 138.2 317.1 135.08 315.42 130.03C313.74 124.98 310.13 124.74 307.72 124.74C304.892 124.56 302.075 124.237 299.28 123.77V123.77Z" fill="white" stroke="#263238" stroke-width="1.04742" stroke-linecap="round" stroke-linejoin="round"/>
<path d="M303.61 120.17C303.61 120.17 295.19 119.92 295.43 122.09C295.67 124.26 304.33 127.09 304.33 127.09C304.33 127.09 301.44 129.01 302.88 130.94C304.32 132.87 307.69 134.55 307.69 134.55C307.69 134.55 306.69 138.64 308.18 138.88C309.67 139.12 310.58 136.95 310.82 136.23C311.06 135.51 313.71 135.75 314.43 137.67C314.837 138.668 315.08 139.725 315.15 140.8C315.15 140.8 318.04 132.14 318.52 128.29C319 124.44 308.18 120.17 303.61 120.17Z" fill="#263238" stroke="#263238" stroke-width="1.04742" stroke-linecap="round" stroke-linejoin="round"/>
<path d="M308.94 139C308.94 139 311.85 132.6 313.59 135.75C315.33 138.9 314.59 142.18 312.88 142.53C311.17 142.88 309.74 143.22 309.74 143.22" fill="white"/>
<path d="M308.94 139C308.94 139 311.85 132.6 313.59 135.75C315.33 138.9 314.59 142.18 312.88 142.53C311.17 142.88 309.74 143.22 309.74 143.22" stroke="#263238" stroke-width="1.04742" stroke-linecap="round" stroke-linejoin="round"/>
<path d="M297.11 205.79C296.64 206.34 288.93 222.87 287.97 228.4C287.01 233.93 280.76 266.89 280.51 268.33C280.26 269.77 267.05 272.66 266.08 272.9C265.11 273.14 267.08 275.79 269.93 276.51C272.78 277.23 281 280.6 282.93 278.67C284.86 276.74 287.5 265.92 288.22 264.72C288.94 263.52 302.48 231.62 302.48 231.62C302.48 231.62 309.42 216.31 310.86 214.86C312.3 213.41 309.15 207 307.94 205.07C306.73 203.14 300.48 201.94 297.11 205.79Z" fill="#263238" stroke="#263238" stroke-width="1.04742" stroke-linecap="round" stroke-linejoin="round"/>
<path d="M295.67 206C295.67 206 299.04 222.12 300.72 227.89C302.292 232.736 304.658 237.288 307.72 241.36C309.65 244.01 319.03 267.36 319.03 267.36L320.47 270.97C320.47 270.97 319.99 272.41 317.35 274.33C314.71 276.25 307.24 279.38 309.17 280.11C311.1 280.84 318.79 280.83 322.4 280.59C325.508 280.369 328.422 278.996 330.57 276.74C332.02 275.05 328.17 270.24 328.17 269.28C328.17 268.32 319.75 238.98 319.27 237.53C318.79 236.08 316.38 225.75 316.38 225.75V214C316.38 214 317.59 211.84 317.59 207C317.59 202.16 313.98 201.22 313.98 201.22L294.25 203.15L295.67 206Z" fill="#263238" stroke="#263238" stroke-width="1.04742" stroke-linecap="round" stroke-linejoin="round"/>
<path d="M294 204.59C294 204.59 294.49 208.68 295.93 208.92C297.37 209.16 312.28 213.25 318.78 208.44C318.78 208.44 319.98 204.83 319.26 203.87C318.54 202.91 316.85 203.39 308.2 203.39C299.55 203.39 294 203.39 294 204.59Z" fill="#FF4747" stroke="#263238" stroke-width="1.04742" stroke-linecap="round" stroke-linejoin="round"/>
<path d="M316.11 150.71C316.11 150.71 307.21 151.91 303.36 155.71C299.51 159.51 296.15 166.54 294.47 173.03C292.79 179.52 291.58 203.34 293.98 204.54C296.38 205.74 316.59 206.95 319.98 205.54C323.37 204.13 319.74 192.79 319.74 188.46C319.74 184.13 323.59 169.46 322.87 161.29C322.15 153.12 316.11 150.71 316.11 150.71Z" fill="#FF4747" stroke="#263238" stroke-width="1.04742" stroke-linecap="round" stroke-linejoin="round"/>
<path d="M284 175.71C283.89 165.81 279.85 157.36 274.48 153.71V151.71L259.68 151.86C251.35 151.95 244.68 162.86 244.85 176.16C245.02 189.46 251.85 200.23 260.19 200.16L274.99 200.01V198.01C280.19 194.14 284.05 185.61 284 175.71Z" fill="#263238" stroke="#263238" stroke-width="1.04742" stroke-linecap="round" stroke-linejoin="round"/>
<path d="M290.64 175.64C290.53 165.24 286.52 156.36 280.88 152.5V150.37L274.54 150.44C265.78 150.53 258.81 161.96 258.96 175.97C259.11 189.98 266.32 201.26 275.08 201.17L281.42 201.1V198.98C286.93 195 290.75 186 290.64 175.64Z" fill="white" stroke="#263238" stroke-width="1.04742" stroke-linecap="round" stroke-linejoin="round"/>
<path d="M297 175.57C297.15 189.57 290.17 201.01 281.42 201.1C272.67 201.19 265.42 189.91 265.3 175.91C265.18 161.91 272.13 150.47 280.88 150.37C289.63 150.27 296.83 161.56 297 175.57Z" fill="#737373" stroke="#263238" stroke-width="1.04742" stroke-linecap="round" stroke-linejoin="round"/>
<path d="M293.36 175.14C293.43 181.77 290.12 187.19 285.97 187.24C281.82 187.29 278.4 181.93 278.33 175.24C278.26 168.55 281.57 163.24 285.72 163.14C289.87 163.04 293.29 168.5 293.36 175.14Z" fill="#263238" stroke="#263238" stroke-width="1.04742" stroke-linecap="round" stroke-linejoin="round"/>
<path d="M411.2 225C412.026 218.836 412.377 212.618 412.25 206.4C409 207.9 390.04 208.45 388.3 208.49C386.56 208.53 367.6 207.9 364.35 206.4C364.207 212.617 364.541 218.835 365.35 225C366.66 233.11 378.18 265.58 378.44 267.15C378.777 268.664 379.215 270.154 379.75 271.61C379.75 271.61 373.2 276.32 370.32 278.15C367.44 279.98 369.54 280.77 372.42 280.77C375.3 280.77 381.32 279.98 383.15 279.98C384.77 279.98 387.59 278.57 388.25 278.23C388.91 278.57 391.73 279.98 393.34 279.98C395.18 279.98 401.2 280.77 404.08 280.77C406.96 280.77 409.08 279.98 406.18 278.15C403.28 276.32 396.75 271.61 396.75 271.61C397.285 270.154 397.723 268.664 398.06 267.15C398.37 265.55 409.89 233.08 411.2 225Z" fill="#263238" stroke="#263238" stroke-width="1.04742" stroke-linecap="round" stroke-linejoin="round"/>
<path d="M384.34 155.49C384.34 155.49 374.21 158.8 368.98 162.12C363.75 165.44 358.5 183.42 358.5 184.12C358.199 185.373 357.791 186.598 357.28 187.78C357.28 187.78 352.04 186.56 351 190.92C349.96 195.28 356.23 200.87 359.55 201.05C362.87 201.23 363.91 200.18 363.91 200.18C363.91 200.18 361.82 204.37 362.69 206.11C363.56 207.85 370.9 214.32 385.39 214.11C399.88 213.9 410.39 211.49 411.92 209.4C413.45 207.31 413.67 202.94 413.67 202.94C413.67 202.94 419.08 201.54 421 198.05C422.92 194.56 422.57 190.89 421.52 187.23C420.47 183.57 415.06 172.94 411.4 167C407.74 161.06 400.05 157.75 396.4 156.7C392.75 155.65 386.78 155.49 384.34 155.49Z" fill="#FF4747" stroke="#263238" stroke-width="1.04742" stroke-linecap="round" stroke-linejoin="round"/>
<path d="M387.41 170.19C388.86 169.71 393.41 165.67 395.16 161.63C395.852 160.084 396.34 158.453 396.61 156.78L396.38 156.71C392.72 155.66 386.78 155.49 384.38 155.49C384.38 155.49 382.26 156.18 379.46 157.25C379.477 159.412 379.884 161.553 380.66 163.57C382.24 167.61 386 170.68 387.41 170.19Z" fill="white" stroke="#263238" stroke-width="1.04742" stroke-linecap="round" stroke-linejoin="round"/>
<path d="M404.06 178.35C404.06 178.35 408.25 200.7 413 203" stroke="#263238" stroke-width="1.04742" stroke-linecap="round" stroke-linejoin="round"/>
<path d="M363.91 200.18C363.91 200.18 369.15 180.45 369.5 178.53" stroke="#263238" stroke-width="1.04742" stroke-linecap="round" stroke-linejoin="round"/>
<path d="M410.83 188.45C410.83 188.45 407.93 189.1 407.93 191.2" stroke="#263238" stroke-width="1.04742" stroke-linecap="round" stroke-linejoin="round"/>
<path d="M361.56 188.77C361.56 188.77 364.79 190.87 364.47 194.1" stroke="#263238" stroke-width="1.04742" stroke-linecap="round" stroke-linejoin="round"/>
<path d="M383.2 280C384.82 280 387.64 278.59 388.3 278.25C388.96 278.59 391.78 280 393.39 280C395.23 280 401.25 280.79 404.13 280.79C407.01 280.79 409.13 280 406.23 278.17C403.72 276.58 398.46 272.82 397.12 271.86C394.03 274.68 387.92 273.98 387.92 273.98C386.682 273.793 385.457 273.533 384.25 273.2C382.42 272.67 379.8 271.63 379.8 271.63C379.8 271.63 373.25 276.34 370.37 278.17C367.49 280 369.59 280.79 372.47 280.79C375.35 280.79 381.37 280 383.2 280Z" fill="#FF4747" stroke="#263238" stroke-width="1.04742" stroke-linecap="round" stroke-linejoin="round"/>
<path d="M387.92 271.67V226.01" stroke="white" stroke-width="1.04742" stroke-linecap="round" stroke-linejoin="round"/>
<path d="M388.3 278.2L387.92 273.93V271.67" stroke="#263238" stroke-width="1.04742" stroke-linecap="round" stroke-linejoin="round"/>
<path d="M384.25 224.439H391.84" stroke="white" stroke-width="1.04742" stroke-linecap="round" stroke-linejoin="round"/>
<path d="M374.33 129.29C374.33 129.29 368.89 132.55 369.7 135.41C370.51 138.27 372.97 138.82 372.43 140.41C371.89 142 370 143 372.15 144C373.374 144.548 374.655 144.961 375.97 145.23C375.97 145.23 377.97 152.17 381.41 153.39C384.85 154.61 390.81 153.8 395.03 153.26C396.455 153.12 397.805 152.55 398.898 151.624C399.991 150.699 400.777 149.463 401.15 148.08C401.56 146.59 399.38 148.36 398.29 146.72C397.2 145.08 398.84 140.87 400.06 137.19C401.28 133.51 397.61 126.57 392.85 124.26C388.09 121.95 379 123.16 374.33 129.29Z" fill="#263238" stroke="#263238" stroke-width="1.04742" stroke-linecap="round" stroke-linejoin="round"/>
<path d="M383.47 153C382.778 155.282 382.309 157.627 382.07 160C381.89 163 384.34 166.29 386.96 166.11C389.58 165.93 391.84 160.7 392.19 158.11C392.54 155.52 391.32 148.51 391.32 148.51C391.32 148.51 387.32 148.69 385.73 150.08C384.796 150.899 384.029 151.89 383.47 153V153Z" fill="white" stroke="#263238" stroke-width="1.04742" stroke-linecap="round" stroke-linejoin="round"/>
<path d="M379.92 133.1C379.92 133.1 380.05 137.18 384.14 141.1C386.599 143.477 389.514 145.331 392.71 146.55C392.639 147.443 392.409 148.317 392.03 149.13C391.852 149.469 391.575 149.747 391.236 149.926C390.897 150.104 390.511 150.175 390.13 150.13H388.76C388.76 150.13 386.76 154.82 384.34 155.5C381.92 156.18 375.97 155.71 375.15 149.72C374.33 143.73 374.2 138.83 374.88 137.6C375.56 136.37 379.92 133.1 379.92 133.1Z" fill="white" stroke="#263238" stroke-width="1.04742" stroke-linecap="round" stroke-linejoin="round"/>
<path d="M422.71 185.8C423.33 184.549 423.707 183.191 423.82 181.8C423.82 179.98 420.44 177.37 419.82 176.72C419.2 176.07 418.58 176.14 418.45 177.05C418.448 177.561 418.551 178.066 418.752 178.536C418.954 179.005 419.249 179.429 419.62 179.78C420.127 180.179 420.494 180.729 420.67 181.35C420.73 181.8 419.55 184.01 420.14 185.44C420.73 186.87 422.39 187.3 422.71 185.8Z" fill="white" stroke="#263238" stroke-width="1.04742" stroke-linecap="round" stroke-linejoin="round"/>
<path d="M287.28 175.59C287.28 175.59 302 180.3 310.85 191.3C319.7 202.3 325.51 200.72 336.51 197.06C347.51 193.4 351.7 180.3 366.89 191.3C382.08 202.3 385.22 206.48 397.79 200.2C410.36 193.92 417.16 178.73 428.69 183.96C440.22 189.19 434.97 215.96 436.02 228.96C437.07 241.96 435.49 274.53 438.11 278.72C440.73 282.91 467.44 279.72 467.44 279.72" stroke="#263238" stroke-width="3.14226" stroke-linecap="round" stroke-linejoin="round"/>
<path d="M314.85 158.11C314.85 158.11 311.92 153.33 307.6 154.58C303.03 155.9 300.67 162.43 299.6 166.5C298.53 170.57 297.81 174.97 295.85 178.76C295.85 178.76 287.19 178.61 282.36 177.21C278.675 176.061 275.05 174.726 271.5 173.21C271.5 173.21 269.79 170.82 268.58 170.35C267.37 169.88 264.23 168.96 264 169.68C263.77 170.4 267.64 172.77 267.64 172.77C267.64 172.77 260.44 173.77 259.72 174.54C259 175.31 264.81 177.61 264.81 177.61C264.81 177.61 266.98 178.31 272.26 177.05C272.26 177.05 291.63 189.35 295.49 190.76C299.35 192.17 301.49 192.62 304.12 187.54C306.75 182.46 315.48 169.86 316.87 164.79" fill="#FF4747"/>
<path d="M314.85 158.11C314.85 158.11 311.92 153.33 307.6 154.58C303.03 155.9 300.67 162.43 299.6 166.5C298.53 170.57 297.81 174.97 295.85 178.76C295.85 178.76 287.19 178.61 282.36 177.21C278.675 176.061 275.05 174.726 271.5 173.21C271.5 173.21 269.79 170.82 268.58 170.35C267.37 169.88 264.23 168.96 264 169.68C263.77 170.4 267.64 172.77 267.64 172.77C267.64 172.77 260.44 173.77 259.72 174.54C259 175.31 264.81 177.61 264.81 177.61C264.81 177.61 266.98 178.31 272.26 177.05C272.26 177.05 291.63 189.35 295.49 190.76C299.35 192.17 301.49 192.62 304.12 187.54C306.75 182.46 315.48 169.86 316.87 164.79" stroke="#263238" stroke-width="1.04742" stroke-linecap="round" stroke-linejoin="round"/>
<path d="M276.53 175.25C273.7 174.19 271.53 173.25 271.53 173.25C271.53 173.25 269.82 170.86 268.61 170.39C267.4 169.92 264.26 169 264.03 169.72C263.8 170.44 267.67 172.81 267.67 172.81C267.67 172.81 260.47 173.81 259.75 174.58C259.03 175.35 264.84 177.65 264.84 177.65C264.84 177.65 267.01 178.35 272.29 177.09L275 178.8L276.53 175.25Z" fill="white" stroke="#263238" stroke-width="1.04742" stroke-linecap="round" stroke-linejoin="round"/>
<path d="M351.19 187.64C350.57 186.389 350.193 185.032 350.08 183.64C350.08 181.82 353.47 179.22 354.08 178.57C354.69 177.92 355.31 177.99 355.44 178.9C355.442 179.411 355.339 179.917 355.138 180.386C354.937 180.856 354.641 181.279 354.27 181.63C353.763 182.03 353.396 182.579 353.22 183.2C353.16 183.64 354.34 185.86 353.75 187.29C353.16 188.72 351.51 189.13 351.19 187.64Z" fill="white" stroke="#263238" stroke-width="1.04742" stroke-linecap="round" stroke-linejoin="round"/>
<path d="M353.52 182.15C353.52 182.15 350.73 187.3 352.35 189.15C353.97 191 355.54 184.99 355.84 183.33C356.14 181.67 354.55 180 353.52 182.15Z" fill="white" stroke="#263238" stroke-width="1.04742" stroke-linecap="round" stroke-linejoin="round"/>
<path d="M355.82 184C355.82 184 353.03 189.15 354.65 191C356.27 192.85 357.84 186.84 358.14 185.18C358.44 183.52 356.85 181.79 355.82 184Z" fill="white" stroke="#263238" stroke-width="1.04742" stroke-linecap="round" stroke-linejoin="round"/>
<path d="M358.35 184.429C358.35 184.429 355.56 189.579 357.18 191.429C358.8 193.279 360.37 187.269 360.67 185.609C360.97 183.949 359.38 182.269 358.35 184.429Z" fill="white" stroke="#263238" stroke-width="1.04742" stroke-linecap="round" stroke-linejoin="round"/>
<path d="M361.59 184.47C361.59 184.47 358.99 188.47 360.41 189.98C361.83 191.49 363.36 186.74 363.66 185.37C363.96 184 362.55 182.67 361.59 184.47Z" fill="white" stroke="#263238" stroke-width="1.04742" stroke-linecap="round" stroke-linejoin="round"/>
<path d="M420.85 182.35C420.85 182.35 423.64 187.5 422.02 189.35C420.4 191.2 418.83 185.18 418.53 183.52C418.23 181.86 419.82 180.19 420.85 182.35Z" fill="white" stroke="#263238" stroke-width="1.04742" stroke-linecap="round" stroke-linejoin="round"/>
<path d="M418.55 184.15C418.55 184.15 421.34 189.3 419.72 191.15C418.1 193 416.53 186.98 416.23 185.32C415.93 183.66 417.52 182 418.55 184.15Z" fill="white" stroke="#263238" stroke-width="1.04742" stroke-linecap="round" stroke-linejoin="round"/>
<path d="M416 184.63C416 184.63 418.79 189.78 417.17 191.63C415.55 193.48 413.98 187.47 413.69 185.8C413.4 184.13 415 182.47 416 184.63Z" fill="white" stroke="#263238" stroke-width="1.04742" stroke-linecap="round" stroke-linejoin="round"/>
<path d="M412.78 184.67C412.78 184.67 415.38 188.72 413.96 190.18C412.54 191.64 411.01 186.94 410.72 185.57C410.43 184.2 411.82 182.87 412.78 184.67Z" fill="white" stroke="#263238" stroke-width="1.04742" stroke-linecap="round" stroke-linejoin="round"/>
<path d="M68.72 241.65V247.33C66.7489 249.485 65.3315 252.086 64.59 254.91C63.38 259.55 59.59 279.52 60.59 280.04C61.59 280.56 71 282.71 74 282.26C77.44 281.74 80.37 281.92 78.64 280.02C76.91 278.12 67.82 272.81 67.82 272.81C67.82 272.81 77.82 258.35 80.04 253.01C82.26 247.67 82.62 239.41 82.62 239.41L69.2 238.9L68.72 241.65Z" fill="white" stroke="#263238" stroke-width="1.04742" stroke-linecap="round" stroke-linejoin="round"/>
<path d="M74 282.26C77.44 281.74 80.37 281.92 78.64 280.02C76.91 278.12 67.82 272.81 67.82 272.81L67.48 274.87L60.93 274.07C60.45 277.41 60.24 279.86 60.59 280.07C61.66 280.55 71 282.71 74 282.26Z" fill="#263238" stroke="#263238" stroke-width="1.04742" stroke-linecap="round" stroke-linejoin="round"/>
<path d="M101.6 244.589L103.15 247.349C102.508 248.588 102.13 249.947 102.04 251.34C101.951 252.732 102.151 254.129 102.63 255.439C104.18 260.259 107.8 277.989 107.8 279.019C107.8 280.049 110.03 280.739 111.8 280.739C113.57 280.739 118.47 281.079 119.16 281.079C119.85 281.079 124.84 281.939 126.56 280.909C128.28 279.879 124.37 277.809 121.79 276.609C119.21 275.409 113.53 272.309 113.53 272.309C113.53 272.309 114.9 258.189 114.9 251.989C114.9 245.789 116.28 243.729 114.39 239.939C112.5 236.149 100.62 241.669 100.62 241.669L101.6 244.589Z" fill="white" stroke="#263238" stroke-width="1.04742" stroke-linecap="round" stroke-linejoin="round"/>
<path d="M121.74 276.61C119.16 275.4 113.48 272.31 113.48 272.31L112.79 274.89L107.26 275.89C107.59 277.61 107.8 278.79 107.8 279.03C107.8 280.03 110.03 280.75 111.8 280.75C113.57 280.75 118.47 281.09 119.16 281.09C119.85 281.09 124.84 281.95 126.56 280.92C128.28 279.89 124.32 277.81 121.74 276.61Z" fill="#263238" stroke="#263238" stroke-width="1.04742" stroke-linecap="round" stroke-linejoin="round"/>
<path d="M92.3301 129.999C90.9807 127.693 89.4385 125.506 87.7201 123.459C85.3501 120.789 77.9201 120.939 74.6601 124.459C71.4001 127.979 72.4301 134.259 73.6601 136.039C74.8901 137.819 77.3701 146.139 77.3701 146.139L77.9601 152.079L91.7701 156.979L88.9501 147.329C88.9501 147.329 94.3001 146.329 94.7401 144.659C95.1801 142.989 93.8501 137.379 93.8501 137.379C93.8501 137.379 95.6301 136.189 95.4801 135.149C95.3301 134.109 92.3301 129.999 92.3301 129.999Z" fill="white" stroke="#263238" stroke-width="1.04742" stroke-linecap="round" stroke-linejoin="round"/>
<path d="M76.44 136.4C76.44 136.4 78.8 138.4 80.09 136.11C81.38 133.82 82.36 131.58 82.36 129.64C82.36 127.7 77.51 126.09 80.74 124.79C83.97 123.49 86.3 126.38 87.74 123.48C89.18 120.58 87.87 120.27 80.11 120.27C72.35 120.27 68.47 124.15 70.11 129C71.4216 132.581 73.0445 136.041 74.96 139.34L76.44 136.4Z" fill="#263238" stroke="#263238" stroke-width="1.04742" stroke-linecap="round" stroke-linejoin="round"/>
<path d="M92.7701 133.43C92.7701 134.163 92.5525 134.881 92.1449 135.491C91.7372 136.101 91.1578 136.577 90.4799 136.857C89.8019 137.138 89.056 137.212 88.3363 137.068C87.6166 136.925 86.9556 136.572 86.4367 136.053C85.9179 135.534 85.5645 134.873 85.4214 134.154C85.2782 133.434 85.3517 132.688 85.6325 132.01C85.9133 131.332 86.3888 130.753 86.9989 130.345C87.609 129.937 88.3263 129.72 89.0601 129.72C90.044 129.72 90.9877 130.111 91.6835 130.806C92.3792 131.502 92.7701 132.446 92.7701 133.43V133.43Z" stroke="#263238" stroke-width="1.04742" stroke-linecap="round" stroke-linejoin="round"/>
<path d="M92.23 130.14C92.6617 129.963 93.1235 129.872 93.59 129.87C94.3625 129.872 95.1127 130.129 95.7231 130.603C96.3334 131.076 96.7694 131.739 96.9626 132.487C97.1559 133.235 97.0956 134.026 96.7911 134.736C96.4866 135.446 95.9551 136.035 95.28 136.41" stroke="#263238" stroke-width="1.04742" stroke-linecap="round" stroke-linejoin="round"/>
<path d="M85.3499 133.43L76.4399 136.4" stroke="#263238" stroke-width="1.04742" stroke-linecap="round" stroke-linejoin="round"/>
<path d="M79 138.33C79 138.33 77.22 134.62 75.44 135.33C73.66 136.04 74.55 141.87 76.33 142.46C76.9281 142.594 77.5498 142.584 78.1431 142.429C78.7364 142.274 79.2839 141.979 79.74 141.57C79.74 141.57 81.23 144.69 83.01 145.57" fill="white"/>
<path d="M79 138.33C79 138.33 77.22 134.62 75.44 135.33C73.66 136.04 74.55 141.87 76.33 142.46C76.9281 142.594 77.5498 142.584 78.1431 142.429C78.7364 142.274 79.2839 141.979 79.74 141.57C79.74 141.57 81.23 144.69 83.01 145.57" stroke="#263238" stroke-width="1.04742" stroke-linecap="round" stroke-linejoin="round"/>
<path d="M67.3199 205L66.2099 219.22L62.8899 240.27C62.8899 240.27 70.6499 246.36 77.8899 246.36C85.1299 246.36 87.1199 245.44 87.1199 245.44L91.1799 223.84L95.2399 246.55C95.2399 246.55 103.24 245.26 108.54 243.96C112.225 242.935 115.718 241.313 118.88 239.16L108.17 211.28L105.85 196.9C105.85 196.9 93.8499 198.01 86.6399 198.38C79.4299 198.75 69.8399 196.9 69.8399 196.9L67.3199 205Z" fill="#FF4747" stroke="#263238" stroke-width="1.04742" stroke-linecap="round" stroke-linejoin="round"/>
<path d="M74.9299 148.18C74.9299 148.18 91.9299 154.11 97.1799 159.87C100.08 163.07 103.33 184.97 104.5 190.32C105.67 195.67 107.71 206.32 107.71 206.32C107.71 206.32 97.3399 211 89.3199 211.17C81.2999 211.34 65.9099 207.66 65.9099 207.66C65.9099 207.66 67.7399 183.93 67.7399 172.9C67.7399 161.87 67.9099 154.67 69.7399 151.16C69.7499 151.19 72.7599 147.84 74.9299 148.18Z" fill="#263238" stroke="#263238" stroke-width="1.04742" stroke-linecap="round" stroke-linejoin="round"/>
<path d="M70.4599 209.38C70.4599 209.38 71.3799 224.89 70.4599 230.62C69.8139 234.317 68.6982 237.916 67.1399 241.33" stroke="#263238" stroke-width="1.04742" stroke-linecap="round" stroke-linejoin="round"/>
<path d="M70.8301 216.77C72.2186 216.293 73.4593 215.464 74.4305 214.363C75.4017 213.262 76.0701 211.927 76.3701 210.49" stroke="#263238" stroke-width="1.04742" stroke-linecap="round" stroke-linejoin="round"/>
<path d="M63.8101 237.27C63.8101 237.27 73.0501 245.21 87.4501 242.27" stroke="#263238" stroke-width="1.04742" stroke-linecap="round" stroke-linejoin="round"/>
<path d="M94.8401 241.88C94.8401 241.88 109.98 240.22 116.63 235.79" stroke="#263238" stroke-width="1.04742" stroke-linecap="round" stroke-linejoin="round"/>
<path d="M162.56 141C162.56 141 161.1 142.08 156.01 145.8C150.92 149.52 154.93 155.14 154.93 155.14C154.93 155.14 151.29 155.71 146.43 160.82C141.57 165.93 148.6 174.7 155.17 176.07C161.74 177.44 169.42 169.31 171.72 161.77C174.02 154.23 170.98 142.86 169.45 140.51C167.92 138.16 162.56 141 162.56 141Z" fill="#263238" stroke="#263238" stroke-width="1.04742" stroke-linecap="round" stroke-linejoin="round"/>
<path d="M181.84 140C181.84 140 184.37 136.09 182.08 130.42C179.79 124.75 172.95 122.16 166.29 126.27C164.07 127.591 162.348 129.607 161.392 132.007C160.435 134.406 160.298 137.054 161 139.54C161.65 142.16 164.93 146.19 165.62 146.25C166.31 146.31 172.3 148.49 176.39 146.58C180.48 144.67 181.84 140 181.84 140Z" fill="#263238" stroke="#263238" stroke-width="1.04742" stroke-linecap="round" stroke-linejoin="round"/>
<path d="M152.41 272C152.41 272 157.16 279.39 165.41 280.65C173.66 281.91 166.24 274.51 164.85 273.39C163.46 272.27 153.53 269.85 152.41 272Z" fill="#737373" stroke="#263238" stroke-width="1.04742" stroke-linecap="round" stroke-linejoin="round"/>
<path d="M196.36 273.9C196.36 273.9 205.43 276.13 204.73 278.09C204.03 280.05 196.64 279.9 192.32 278.78C188 277.66 183.94 275.99 184.5 274.18C185.06 272.37 196.36 273.9 196.36 273.9Z" fill="#737373" stroke="#263238" stroke-width="1.04742" stroke-linecap="round" stroke-linejoin="round"/>
<path d="M170.57 154.7C170.57 154.7 158.43 156.48 156.21 160.77C153.99 165.06 157.12 188.43 157.12 188.43C157.12 188.43 151.94 199.86 151.87 207.22C151.8 214.58 155.08 227.53 154.82 230.76C154.56 233.99 151.24 270.76 151.24 271.76C151.24 272.76 158.24 275 168.33 276.2C178.42 277.4 197.72 273.81 197.72 273.81C197.72 273.81 197.34 252.11 198.35 239.17C199.36 226.23 197.92 214.6 195.35 209.77C192.78 204.94 180.81 187.55 180.81 187.55C180.81 187.55 186.61 177.03 186.97 172.43C187.33 167.83 185.46 165.43 181.08 160.14C179.778 158.58 178.178 157.295 176.373 156.361C174.569 155.426 172.596 154.862 170.57 154.7V154.7Z" fill="#FF4747" stroke="#263238" stroke-width="1.04742" stroke-linecap="round" stroke-linejoin="round"/>
<path d="M180.84 187.56C180.84 187.56 186.64 177.04 187 172.44C187.36 167.84 185.49 165.44 181.11 160.15C180.9 159.89 180.68 159.66 180.46 159.42L180.3 159.57C175.8 166.92 160.92 179.48 156.49 183.14C156.83 186.27 157.12 188.43 157.12 188.43C157.12 188.43 151.94 199.86 151.87 207.22C151.953 210.574 152.287 213.916 152.87 217.22C163.38 211.22 177.44 199.99 185.05 193.73C182.67 190.21 180.84 187.56 180.84 187.56Z" fill="#737373" stroke="#263238" stroke-width="1.04742" stroke-linecap="round" stroke-linejoin="round"/>
<path d="M168.33 146.12C168.666 148.865 168.849 151.626 168.88 154.39C168.72 156.44 169.38 161.12 172.88 162.59C176.38 164.06 178.58 162.01 178.57 159.95C178.443 158.249 178.107 156.57 177.57 154.95L177.67 149.3C177.67 149.3 171.63 145.52 168.33 146.12Z" fill="white" stroke="#263238" stroke-width="1.04742" stroke-linecap="round" stroke-linejoin="round"/>
<path d="M165.19 142.449C165.19 142.449 162.62 140.189 162.54 143.449C162.46 146.709 165.46 147.789 166.12 148.009C166.677 148.085 167.242 147.946 167.7 147.619C167.7 147.619 172.36 151.619 176.1 151.879C179.84 152.139 181.36 150.409 182.24 143.619C183.12 136.829 176.11 129.939 176.11 129.939C176.11 129.939 170.11 140.999 165.19 142.449Z" fill="white" stroke="#263238" stroke-width="1.04742" stroke-linecap="round" stroke-linejoin="round"/>
<path d="M108 206.18C107.966 205.021 108.156 203.867 108.56 202.78C109.18 201.42 112.56 200.64 113.31 200.38C114.06 200.12 114.44 200.38 114.22 201.09C114.045 201.472 113.794 201.814 113.483 202.096C113.172 202.378 112.807 202.593 112.41 202.73C111.893 202.854 111.428 203.137 111.08 203.54C110.89 203.86 111.01 205.91 110.08 206.78C109.15 207.65 107.69 207.41 108 206.18Z" fill="white" stroke="#263238" stroke-width="1.04742" stroke-linecap="round" stroke-linejoin="round"/>
<path d="M184.64 176.11C184.64 176.11 172.64 174.54 167.35 182.92C162.06 191.3 152.17 220.62 133.84 225.34C115.51 230.06 110.27 192.34 99.27 193.39C88.79 194.39 81.47 193.39 75.18 204.91C71.82 211.08 55.02 278.45 47.08 279.14C21.79 281.35 5.51001 279.91 5.51001 279.91" stroke="#263238" stroke-width="3.14226" stroke-linecap="round" stroke-linejoin="round"/>
<path d="M75.7101 148.66C75.7101 148.66 72.9401 147.55 69.2401 149.76C65.5401 151.97 55.5801 176.17 56.3201 178.76C57.0601 181.35 67.5801 186.15 73.4901 187.81C79.4001 189.47 90.1101 191.51 90.1101 191.51C90.1101 191.51 93.4301 196.68 94.5401 196.86C96.1545 196.838 97.7626 196.654 99.3401 196.31C99.3401 196.31 101.34 197.97 102.11 196.12C102.88 194.27 101.37 191.88 99.7101 190.03C98.0501 188.18 91.0301 187.26 91.0301 187.26L72.0001 174.14L80.0001 159.37" fill="#263238"/>
<path d="M75.7101 148.66C75.7101 148.66 72.9401 147.55 69.2401 149.76C65.5401 151.97 55.5801 176.17 56.3201 178.76C57.0601 181.35 67.5801 186.15 73.4901 187.81C79.4001 189.47 90.1101 191.51 90.1101 191.51C90.1101 191.51 93.4301 196.68 94.5401 196.86C96.1545 196.838 97.7626 196.654 99.3401 196.31C99.3401 196.31 101.34 197.97 102.11 196.12C102.88 194.27 101.37 191.88 99.7101 190.03C98.0501 188.18 91.0301 187.26 91.0301 187.26L72.0001 174.14L80.0001 159.37" stroke="#263238" stroke-width="1.04742" stroke-linecap="round" stroke-linejoin="round"/>
<path d="M94.54 196.85C96.1544 196.828 97.7625 196.643 99.34 196.3C99.34 196.3 101.34 197.96 102.11 196.11C102.88 194.26 101.37 191.87 99.71 190.02C98.05 188.17 91.03 187.25 91.03 187.25L72 174.14L74.84 168.85C67.73 164.42 63.01 164.75 60.46 165.64C57.91 171.76 55.97 177.56 56.31 178.75C57.05 181.34 67.57 186.14 73.48 187.8C79.39 189.46 90.1 191.5 90.1 191.5C90.1 191.5 93.43 196.67 94.54 196.85Z" fill="white" stroke="#263238" stroke-width="1.04742" stroke-linecap="round" stroke-linejoin="round"/>
<path d="M213.49 176.52C212.68 167.79 208.49 160.62 203.49 157.77L203.33 155.99L190.27 157.2C182.92 157.88 177.85 167.97 178.94 179.73C180.03 191.49 186.87 200.46 194.22 199.73L207.28 198.52L207.11 196.74C211.51 193.06 214.3 185.25 213.49 176.52Z" fill="#263238" stroke="#263238" stroke-width="1.04742" stroke-linecap="round" stroke-linejoin="round"/>
<path d="M219.4 176C218.55 166.83 214.4 159.28 209.11 156.28L208.93 154.41L203.34 154.93C195.62 155.65 190.29 166.24 191.43 178.6C192.57 190.96 199.77 200.39 207.49 199.67L213.08 199.15L212.91 197.28C217.53 193.34 220.25 185.14 219.4 176Z" fill="white" stroke="#263238" stroke-width="1.04742" stroke-linecap="round" stroke-linejoin="round"/>
<path d="M225 175.449C226.15 187.809 220.82 198.399 213.09 199.119C205.36 199.839 198.17 190.399 197 178.049C195.83 165.699 201.18 155.049 208.9 154.379C216.62 153.709 223.84 163.099 225 175.449Z" fill="white" stroke="#263238" stroke-width="1.04742" stroke-linecap="round" stroke-linejoin="round"/>
<path d="M231 168.23L209.31 170.23C209.006 170.259 208.699 170.228 208.407 170.138C208.115 170.048 207.844 169.901 207.609 169.706C207.374 169.511 207.179 169.271 207.037 169.001C206.895 168.73 206.808 168.435 206.78 168.13V168.13C206.751 167.826 206.782 167.519 206.872 167.227C206.962 166.935 207.109 166.664 207.304 166.429C207.499 166.194 207.739 166 208.01 165.857C208.28 165.715 208.576 165.628 208.88 165.6L230.57 163.6C230.874 163.571 231.181 163.603 231.473 163.693C231.765 163.783 232.036 163.93 232.271 164.125C232.506 164.32 232.7 164.559 232.843 164.83C232.985 165.1 233.072 165.396 233.1 165.7V165.7C233.129 166.004 233.097 166.311 233.007 166.603C232.917 166.895 232.771 167.166 232.576 167.401C232.38 167.637 232.141 167.831 231.87 167.973C231.6 168.115 231.304 168.203 231 168.23V168.23Z" fill="#737373" stroke="#263238" stroke-width="1.04742" stroke-linecap="round" stroke-linejoin="round"/>
<path d="M232.61 185.42L210.92 187.42C210.616 187.449 210.309 187.417 210.017 187.327C209.725 187.237 209.454 187.091 209.219 186.896C208.984 186.7 208.79 186.461 208.647 186.19C208.505 185.92 208.418 185.624 208.39 185.32V185.32C208.361 185.016 208.393 184.709 208.483 184.417C208.573 184.125 208.719 183.854 208.914 183.619C209.11 183.384 209.349 183.189 209.62 183.047C209.89 182.905 210.186 182.818 210.49 182.79L232.18 180.79C232.793 180.737 233.402 180.928 233.876 181.321C234.35 181.714 234.649 182.278 234.71 182.89V182.89C234.739 183.194 234.708 183.501 234.618 183.793C234.528 184.085 234.381 184.356 234.186 184.591C233.99 184.826 233.751 185.02 233.48 185.163C233.21 185.305 232.914 185.392 232.61 185.42V185.42Z" fill="#737373" stroke="#263238" stroke-width="1.04742" stroke-linecap="round" stroke-linejoin="round"/>
<path d="M163.07 156.33C163.07 156.33 157.85 157.33 155.38 160.33C152.91 163.33 147.84 186.48 149.01 189.14C150.18 191.8 168.93 195.14 174.72 195.62C179.376 195.804 184.039 195.597 188.66 195C188.66 195 193.66 194.87 195.03 194.64C196.4 194.41 198.92 193.06 198.96 192.55C199 192.04 198.75 190.82 196.88 190.67C195.01 190.52 191 189.18 190.49 189.14C191.692 188.824 192.91 188.577 194.14 188.4C194.14 188.4 194.4 187.4 192.34 187.4C190.28 187.4 188.41 187.26 187.63 188.4C187.072 189.288 186.597 190.225 186.21 191.2C186.21 191.2 174.66 192.01 168.39 188.95C162.12 185.89 160.14 184.87 160.14 184.87L164.64 166.87" fill="#FF4747"/>
<path d="M163.07 156.33C163.07 156.33 157.85 157.33 155.38 160.33C152.91 163.33 147.84 186.48 149.01 189.14C150.18 191.8 168.93 195.14 174.72 195.62C179.376 195.804 184.039 195.597 188.66 195C188.66 195 193.66 194.87 195.03 194.64C196.4 194.41 198.92 193.06 198.96 192.55C199 192.04 198.75 190.82 196.88 190.67C195.01 190.52 191 189.18 190.49 189.14C191.692 188.824 192.91 188.577 194.14 188.4C194.14 188.4 194.4 187.4 192.34 187.4C190.28 187.4 188.41 187.26 187.63 188.4C187.072 189.288 186.597 190.225 186.21 191.2C186.21 191.2 174.66 192.01 168.39 188.95C162.12 185.89 160.14 184.87 160.14 184.87L164.64 166.87" stroke="#263238" stroke-width="1.04742" stroke-linecap="round" stroke-linejoin="round"/>
<path d="M195 194.67C196.39 194.44 198.89 193.09 198.93 192.58C198.97 192.07 198.72 190.85 196.85 190.7C194.98 190.55 190.97 189.21 190.46 189.17C191.662 188.854 192.88 188.607 194.11 188.43C194.11 188.43 194.37 187.43 192.31 187.43C190.25 187.43 188.38 187.29 187.6 188.43C187.042 189.318 186.567 190.255 186.18 191.23C186.18 191.23 174.63 192.04 168.36 188.98C162.09 185.92 160.11 184.9 160.11 184.9L162.85 173.9C159.283 172.432 155.519 171.499 151.68 171.13C149.81 178.67 148.28 187.55 148.98 189.13C150.14 191.79 168.9 195.13 174.69 195.61C179.346 195.794 184.009 195.587 188.63 194.99C188.63 194.99 193.64 194.9 195 194.67Z" fill="white" stroke="#263238" stroke-width="1.04742" stroke-linecap="round" stroke-linejoin="round"/>
<path d="M110.54 204.24C110.54 204.24 106.68 207.13 107.27 209.04C107.86 210.95 111.08 207.04 111.88 205.89C112.68 204.74 112.05 203 110.54 204.24Z" fill="white" stroke="#263238" stroke-width="1.04742" stroke-linecap="round" stroke-linejoin="round"/>
<path d="M111.3 206.83C111.3 206.83 107.45 209.72 108.03 211.63C108.61 213.54 111.85 209.63 112.64 208.48C113.43 207.33 112.81 205.57 111.3 206.83Z" fill="white" stroke="#263238" stroke-width="1.04742" stroke-linecap="round" stroke-linejoin="round"/>
<path d="M113.13 208.51C113.13 208.51 109.28 211.4 109.87 213.31C110.46 215.22 113.68 211.31 114.48 210.16C115.28 209.01 114.65 207.25 113.13 208.51Z" fill="white" stroke="#263238" stroke-width="1.04742" stroke-linecap="round" stroke-linejoin="round"/>
<path d="M114.64 209.87C114.64 209.87 111.31 212.01 111.87 213.59C112.43 215.17 115.18 212.18 115.87 211.26C116.56 210.34 116 208.86 114.64 209.87Z" fill="white" stroke="#263238" stroke-width="1.04742" stroke-linecap="round" stroke-linejoin="round"/>
</svg>
