<svg width="253" height="250" viewBox="0 0 253 250" fill="none" xmlns="http://www.w3.org/2000/svg">
<path d="M2 0H12V10H2V0ZM12 0H22V10H12V0ZM22 0H32V10H22V0ZM32 0H42V10H32V0ZM42 0H52V10H42V0ZM52 0H62V10H52V0ZM62 0H72V10H62V0ZM82 0H92V10H82V0ZM102 0H112V10H102V0ZM132 0H142V10H132V0ZM162 0H172V10H162V0ZM2 10H12V20H2V10ZM62 10H72V20H62V10ZM82 10H92V20H82V10ZM102 10H112V20H102V10ZM122 10H132V20H122V10ZM142 10H152V20H142V10ZM152 10H162V20H152V10ZM162 10H172V20H162V10ZM2 20H12V30H2V20ZM22 20H32V30H22V20ZM32 20H42V30H32V20ZM42 20H52V30H42V20ZM62 20H72V30H62V20ZM82 20H92V30H82V20ZM92 20H102V30H92V20ZM112 20H122V30H112V20ZM132 20H142V30H132V20ZM142 20H152V30H142V20ZM162 20H172V30H162V20ZM202 20H212V30H202V20ZM212 20H222V30H212V20ZM222 20H232V30H222V20ZM2 30H12V40H2V30ZM22 30H32V40H22V30ZM32 30H42V40H32V30ZM42 30H52V40H42V30ZM62 30H72V40H62V30ZM82 30H92V40H82V30ZM122 30H132V40H122V30ZM132 30H142V40H132V30ZM142 30H152V40H142V30ZM152 30H162V40H152V30ZM202 30H212V40H202V30ZM212 30H222V40H212V30ZM222 30H232V40H222V30ZM2 40H12V50H2V40ZM22 40H32V50H22V40ZM32 40H42V50H32V40ZM42 40H52V50H42V40ZM62 40H72V50H62V40ZM82 40H92V50H82V40ZM92 40H102V50H92V40ZM102 40H112V50H102V40ZM112 40H122V50H112V40ZM142 40H152V50H142V40ZM202 40H212V50H202V40ZM212 40H222V50H212V40ZM222 40H232V50H222V40ZM2 50H12V60H2V50ZM62 50H72V60H62V50ZM92 50H102V60H92V50ZM102 50H112V60H102V50ZM112 50H122V60H112V50ZM122 50H132V60H122V50ZM132 50H142V60H132V50ZM2 60H12V70H2V60ZM12 60H22V70H12V60ZM22 60H32V70H22V60ZM32 60H42V70H32V60ZM42 60H52V70H42V60ZM52 60H62V70H52V60ZM62 60H72V70H62V60ZM82 60H92V70H82V60ZM102 60H112V70H102V60ZM122 60H132V70H122V60ZM142 60H152V70H142V60ZM162 60H172V70H162V60ZM82 70H92V80H82V70ZM92 70H102V80H92V70ZM112 70H122V80H112V70ZM122 70H132V80H122V70ZM132 70H142V80H132V70ZM142 70H152V80H142V70ZM162 70H172V80H162V70ZM12 80H22V90H12V80ZM22 80H32V90H22V80ZM42 80H52V90H42V80ZM62 80H72V90H62V80ZM72 80H82V90H72V80ZM92 80H102V90H92V80ZM112 80H122V90H112V80ZM142 80H152V90H142V80ZM152 80H162V90H152V80ZM182 80H192V90H182V80ZM202 80H212V90H202V80ZM212 80H222V90H212V80ZM222 80H232V90H222V80ZM232 80H242V90H232V80ZM242 80H252V90H242V80ZM12 90H22V100H12V90ZM22 90H32V100H22V90ZM32 90H42V100H32V90ZM42 90H52V100H42V90ZM52 90H62V100H52V90ZM72 90H82V100H72V90ZM82 90H92V100H82V90ZM92 90H102V100H92V90ZM142 90H152V100H142V90ZM152 90H162V100H152V90ZM172 90H182V100H172V90ZM182 90H192V100H182V90ZM212 90H222V100H212V90ZM232 90H242V100H232V90ZM242 90H252V100H242V90ZM22 100H32V110H22V100ZM52 100H62V110H52V100ZM62 100H72V110H62V100ZM102 100H112V110H102V100ZM122 100H132V110H122V100ZM132 100H142V110H132V100ZM172 100H182V110H172V100ZM192 100H202V110H192V100ZM202 100H212V110H202V100ZM212 100H222V110H212V100ZM222 100H232V110H222V100ZM232 100H242V110H232V100ZM242 100H252V110H242V100ZM2 160H12V170H2V160ZM32 160H42V170H32V160ZM42 160H52V170H42V160ZM62 160H72V170H62V160ZM92 160H102V170H92V160ZM112 160H122V170H112V160ZM152 160H162V170H152V160ZM162 160H172V170H162V160ZM172 160H182V170H172V160ZM182 160H192V170H182V160ZM192 160H202V170H192V160ZM202 160H212V170H202V160ZM232 160H242V170H232V160ZM82 170H92V180H82V170ZM92 170H102V180H92V170ZM122 170H132V180H122V170ZM132 170H142V180H132V170ZM152 170H162V180H152V170ZM162 170H172V180H162V170ZM202 170H212V180H202V170ZM222 170H232V180H222V170ZM232 170H242V180H232V170ZM242 170H252V180H242V170ZM82 180H92V190H82V180ZM92 180H102V190H92V180ZM112 180H122V190H112V180ZM132 180H142V190H132V180ZM162 180H172V190H162V180ZM182 180H192V190H182V180ZM202 180H212V190H202V180ZM222 180H232V190H222V180ZM232 180H242V190H232V180ZM242 180H252V190H242V180ZM112 190H122V200H112V190ZM122 190H132V200H122V190ZM132 190H142V200H132V190ZM142 190H152V200H142V190ZM152 190H162V200H152V190ZM162 190H172V200H162V190ZM202 190H212V200H202V190ZM22 200H32V210H22V200ZM32 200H42V210H32V200ZM42 200H52V210H42V200ZM82 200H92V210H82V200ZM102 200H112V210H102V200ZM112 200H122V210H112V200ZM132 200H142V210H132V200ZM162 200H172V210H162V200ZM172 200H182V210H172V200ZM182 200H192V210H182V200ZM192 200H202V210H192V200ZM202 200H212V210H202V200ZM232 200H242V210H232V200ZM22 210H32V220H22V210ZM32 210H42V220H32V210ZM42 210H52V220H42V210ZM92 210H102V220H92V210ZM122 210H132V220H122V210ZM132 210H142V220H132V210ZM162 210H172V220H162V210ZM202 210H212V220H202V210ZM212 210H222V220H212V210ZM222 210H232V220H222V210ZM232 210H242V220H232V210ZM22 220H32V230H22V220ZM32 220H42V230H32V220ZM42 220H52V230H42V220ZM82 220H92V230H82V220ZM92 220H102V230H92V220ZM112 220H122V230H112V220ZM122 220H132V230H122V220ZM132 220H142V230H132V220ZM192 220H202V230H192V220ZM202 220H212V230H202V220ZM212 220H222V230H212V220ZM242 220H252V230H242V220ZM82 230H92V240H82V230ZM92 230H102V240H92V230ZM122 230H132V240H122V230ZM152 230H162V240H152V230ZM162 230H172V240H162V230ZM182 230H192V240H182V230ZM192 230H202V240H192V230ZM232 230H242V240H232V230ZM102 240H112V250H102V240ZM122 240H132V250H122V240ZM142 240H152V250H142V240ZM152 240H162V250H152V240ZM162 240H172V250H162V240ZM182 240H192V250H182V240ZM232 240H242V250H232V240ZM242 240H252V250H242V240Z" fill="black" fill-opacity="0.8"/>
<path d="M2.08 149V113.952H10.816V149H2.08ZM37.128 113.952V149H15.236V147.024H28.392V116.396H15.236V113.952H37.128ZM41.4355 149V147.076H70.8155V149H41.4355ZM49.8075 123.832V145.776H41.4355V123.832H49.8075ZM62.4435 123.832H70.8155V145.776H62.4435V123.832ZM75.0527 149V112.08H83.4767V149H75.0527ZM91.7447 134.596V123.832H104.381V126.12H100.221V134.596H91.7447ZM108.489 136.468V149H100.221V138.288H87.5847V136.468H108.489ZM121.657 126.12V147.076H129.977V149H113.181V123.832H129.977V126.12H121.657ZM142.561 147.076H146.825V149H134.137V123.832H142.561V147.076ZM179.995 123.832V149H171.623V126.172H158.987V149H150.615V123.832H179.995Z" fill="black"/>
<path d="M205.087 112.08H213.407V149H196.663V147.128H205.087V112.08ZM200.875 126.172H192.555V149H184.131V123.832H200.875V126.172ZM225.657 126.12V147.076H233.977V149H217.181V123.832H233.977V126.12H225.657ZM246.561 147.076H250.825V149H238.137V123.832H246.561V147.076Z" fill="#E9601F"/>
<rect x="7" y="5" width="60" height="60" stroke="#E9601F" stroke-width="10"/>
<rect x="187" y="5" width="60" height="60" stroke="#E9601F" stroke-width="10"/>
<rect x="7" y="185" width="60" height="60" stroke="#E9601F" stroke-width="10"/>
</svg>
